# xmcd CD database file
#
# Track frame offsets:
#	150
#	13515
#	26340
#	40127
#	53492
#	64202
#	75302
#	88442
#	99842
#	112375
#	123697
#	135020
#	155270
#	167585
#	177852
#	192235
#
# Disc length: 2730 seconds
#
# Revision: 1
# Processed by: cddbd v1.5.2PL0 Copyright (c) Steve Scherf et al.
# Submitted via: CDex 1.51
#
DISCID=c20aa810
DTITLE=Elmore James - The Comlete Fire - Enjoy Sessions (Disc-1)
DYEAR=1900
DGENRE=Blues
TTITLE0=Stranger Blues
TTITLE1=Anna Lee
TTITLE2=My Bleeding Heart
TTITLE3=Standing At The Crossroad
TTITLE4=One Way Out
TTITLE5=Person To Person
TTITLE6=My Kind Of Woman
TTITLE7=So Unkind
TTITLE8=Got To Move
TTITLE9=Look On Yonder Wall
TTITLE10=Shake Your Moneymaker
TTITLE11=Mean Mistreatin' Mama (Take 1 and 2)
TTITLE12=Mean Mistreatin' Mama (Take 3)
TTITLE13=Sunnyland Train
TTITLE14=My Baby's Gone
TTITLE15=Find My Kinda Woman
EXTD=
EXTT0=
EXTT1=
EXTT2=
EXTT3=
EXTT4=
EXTT5=
EXTT6=
EXTT7=
EXTT8=
EXTT9=
EXTT10=
EXTT11=
EXTT12=
EXTT13=
EXTT14=
EXTT15=
PLAYORDER=
